<mxfile host="app.diagrams.net" agent="Mozilla/5.0 (X11; Ubuntu; Linux x86_64; rv:136.0) Gecko/20100101 Firefox/136.0" version="26.1.1">
  <diagram name="Pàgina-1" id="SzTLxzRPW-Rdil-6Vb05">
    <mxGraphModel dx="1362" dy="766" grid="1" gridSize="10" guides="1" tooltips="1" connect="1" arrows="1" fold="1" page="1" pageScale="1" pageWidth="827" pageHeight="1169" math="0" shadow="0">
      <root>
        <mxCell id="0" />
        <mxCell id="1" parent="0" />
        <mxCell id="3RDfhVt8bskDuzmoSG6A-1" value="" style="ellipse;whiteSpace=wrap;html=1;aspect=fixed;" vertex="1" parent="1">
          <mxGeometry x="80" y="140" width="310" height="310" as="geometry" />
        </mxCell>
        <mxCell id="3RDfhVt8bskDuzmoSG6A-2" value="" style="ellipse;whiteSpace=wrap;html=1;aspect=fixed;" vertex="1" parent="1">
          <mxGeometry x="770" y="140" width="310" height="310" as="geometry" />
        </mxCell>
        <mxCell id="3RDfhVt8bskDuzmoSG6A-3" value="Nodo Servidor Movimiento" style="text;html=1;align=center;verticalAlign=middle;whiteSpace=wrap;rounded=0;" vertex="1" parent="1">
          <mxGeometry x="205" y="470" width="60" height="30" as="geometry" />
        </mxCell>
        <mxCell id="3RDfhVt8bskDuzmoSG6A-4" value="Nodo Cliente Movimiento" style="text;html=1;align=center;verticalAlign=middle;whiteSpace=wrap;rounded=0;" vertex="1" parent="1">
          <mxGeometry x="895" y="470" width="60" height="30" as="geometry" />
        </mxCell>
        <mxCell id="3RDfhVt8bskDuzmoSG6A-6" value="" style="rounded=0;whiteSpace=wrap;html=1;" vertex="1" parent="1">
          <mxGeometry x="430" y="140" width="210" height="370" as="geometry" />
        </mxCell>
        <mxCell id="3RDfhVt8bskDuzmoSG6A-8" value="Acción" style="text;html=1;align=center;verticalAlign=middle;whiteSpace=wrap;rounded=0;" vertex="1" parent="1">
          <mxGeometry x="505" y="555" width="60" height="30" as="geometry" />
        </mxCell>
        <mxCell id="3RDfhVt8bskDuzmoSG6A-9" value="Servicio Goal Movimiento" style="rounded=0;whiteSpace=wrap;html=1;" vertex="1" parent="1">
          <mxGeometry x="475" y="160" width="120" height="60" as="geometry" />
        </mxCell>
        <mxCell id="3RDfhVt8bskDuzmoSG6A-10" value="Feedback Topic Movimiento" style="rounded=0;whiteSpace=wrap;html=1;" vertex="1" parent="1">
          <mxGeometry x="475" y="295" width="120" height="60" as="geometry" />
        </mxCell>
        <mxCell id="3RDfhVt8bskDuzmoSG6A-11" value="Servicio Result Movimiento" style="rounded=0;whiteSpace=wrap;html=1;" vertex="1" parent="1">
          <mxGeometry x="475" y="410" width="120" height="60" as="geometry" />
        </mxCell>
        <mxCell id="3RDfhVt8bskDuzmoSG6A-12" value="&lt;div&gt;Punto(int32 x,y)&lt;/div&gt;&lt;div&gt;float Movimiento&lt;/div&gt;&lt;div&gt;string Confirmacion&lt;/div&gt;" style="rounded=0;whiteSpace=wrap;html=1;" vertex="1" parent="1">
          <mxGeometry x="175" y="560" width="120" height="200" as="geometry" />
        </mxCell>
        <mxCell id="3RDfhVt8bskDuzmoSG6A-13" value="&lt;div&gt;Punto(int32 x,y)&lt;/div&gt;&lt;div&gt;string Estado&lt;/div&gt;" style="rounded=0;whiteSpace=wrap;html=1;" vertex="1" parent="1">
          <mxGeometry x="865" y="560" width="120" height="200" as="geometry" />
        </mxCell>
        <mxCell id="3RDfhVt8bskDuzmoSG6A-14" value="&lt;div&gt;Posicion (int32 x,y)&lt;/div&gt;&lt;div&gt;float Movimiento&lt;/div&gt;" style="rounded=0;whiteSpace=wrap;html=1;" vertex="1" parent="1">
          <mxGeometry x="490" y="600" width="120" height="160" as="geometry" />
        </mxCell>
        <mxCell id="3RDfhVt8bskDuzmoSG6A-15" value="Mensaje Goal Movimiento" style="text;html=1;align=center;verticalAlign=middle;whiteSpace=wrap;rounded=0;" vertex="1" parent="1">
          <mxGeometry x="205" y="770" width="60" height="30" as="geometry" />
        </mxCell>
        <mxCell id="3RDfhVt8bskDuzmoSG6A-17" value="Mensaje Feedback Movimiento" style="text;html=1;align=center;verticalAlign=middle;whiteSpace=wrap;rounded=0;" vertex="1" parent="1">
          <mxGeometry x="520" y="780" width="60" height="30" as="geometry" />
        </mxCell>
        <mxCell id="3RDfhVt8bskDuzmoSG6A-18" value="&lt;div&gt;Mensaje &lt;br&gt;&lt;/div&gt;&lt;div&gt;Result&lt;/div&gt;&lt;div&gt;Movimiento&lt;/div&gt;" style="text;html=1;align=center;verticalAlign=middle;whiteSpace=wrap;rounded=0;" vertex="1" parent="1">
          <mxGeometry x="895" y="780" width="60" height="30" as="geometry" />
        </mxCell>
      </root>
    </mxGraphModel>
  </diagram>
</mxfile>
